HIERARCHY
ROOT SpineBase
{
  OFFSET 0.000000 0.000000 0.000000
  CHANNELS 6 Xposition Yposition Zposition Zrotation Xrotation Yrotation
  JOINT SpineMid
  {
    OFFSET 0.000000 30.934749 0.000000
    CHANNELS 3 Zrotation Xrotation Yrotation
    JOINT SpineShoulder
    {
      OFFSET -0.178329 23.016441 -0.884556
      CHANNELS 3 Zrotation Xrotation Yrotation
      JOINT Neck
      {
        OFFSET -0.109976 7.622901 -0.663900
        CHANNELS 3 Zrotation Xrotation Yrotation
        JOINT Head
        {
          OFFSET -2.749592 11.251586 1.123631
          CHANNELS 3 Zrotation Xrotation Yrotation
          End Site
          {
            OFFSET 0 0 0
          }
        }
      }
      JOINT ShoulderLeft
      {
        OFFSET -15.779010 -3.633594 7.487934
        CHANNELS 3 Zrotation Xrotation Yrotation
        JOINT ElbowLeft
        {
          OFFSET -2.528844 -30.968256 3.004185
          CHANNELS 3 Zrotation Xrotation Yrotation
          JOINT WristLeft
          {
            OFFSET -1.535398 -22.798484 -4.897430
            CHANNELS 3 Zrotation Xrotation Yrotation
            JOINT HandLeft
            {
              OFFSET 0.259026 -3.295295 -1.336265
              CHANNELS 3 Zrotation Xrotation Yrotation
              JOINT HandTipLeft
              {
                OFFSET -0.772383 -5.439637 -2.338632
                CHANNELS 3 Zrotation Xrotation Yrotation
                End Site
                {
                  OFFSET 0 0 0
                }
              }
              JOINT ThumbLeft
              {
                OFFSET -3.876713 -0.626891 -0.763446
                CHANNELS 3 Zrotation Xrotation Yrotation
                End Site
                {
                  OFFSET 0 0 0
                }
              }
            }
          }
        }
      }
      JOINT ShoulderRight
      {
        OFFSET 13.666597 -2.058934 -9.176743
        CHANNELS 3 Zrotation Xrotation Yrotation
        JOINT ElbowRight
        {
          OFFSET 7.479921 -27.492892 -2.453276
          CHANNELS 3 Zrotation Xrotation Yrotation
          JOINT WristRight
          {
            OFFSET -0.120437 -22.206094 -7.815342
            CHANNELS 3 Zrotation Xrotation Yrotation
            JOINT HandRight
            {
              OFFSET -2.138609 -6.931865 -1.127705
              CHANNELS 3 Zrotation Xrotation Yrotation
              JOINT HandTipRight
              {
                OFFSET -0.641796 -6.031079 -1.647697
                CHANNELS 3 Zrotation Xrotation Yrotation
                End Site
                {
                  OFFSET 0 0 0
                }
              }
              JOINT ThumbRight
              {
                OFFSET -2.187722 0.516712 -0.569167
                CHANNELS 3 Zrotation Xrotation Yrotation
                End Site
                {
                  OFFSET 0 0 0
                }
              }
            }
          }
        }
      }
    }
  }
  JOINT HipLeft
  {
    OFFSET -5.615668 0.314387 -0.865359
    CHANNELS 3 Zrotation Xrotation Yrotation
    JOINT KneeLeft
    {
      OFFSET 0.618977 -34.515035 2.323078
      CHANNELS 3 Zrotation Xrotation Yrotation
      JOINT AnkleLeft
      {
        OFFSET 4.241290 -35.594218 5.404116
        CHANNELS 3 Zrotation Xrotation Yrotation
        JOINT FootLeft
        {
          OFFSET -5.625262 -3.204871 -13.967056
          CHANNELS 3 Zrotation Xrotation Yrotation
          End Site
          {
            OFFSET 0 0 0
          }
        }
      }
    }
  }
  JOINT HipRight
  {
    OFFSET 4.652831 1.473210 -7.073572
    CHANNELS 3 Zrotation Xrotation Yrotation
    JOINT KneeRight
    {
      OFFSET 9.740062 -35.342182 -2.974503
      CHANNELS 3 Zrotation Xrotation Yrotation
      JOINT AnkleRight
      {
        OFFSET 5.643575 -35.726479 3.460633
        CHANNELS 3 Zrotation Xrotation Yrotation
        JOINT FootRight
        {
          OFFSET -1.054299 -8.468468 -5.988276
          CHANNELS 3 Zrotation Xrotation Yrotation
          End Site
          {
            OFFSET 0 0 0
          }
        }
      }
    }
  }
}
MOTION
Frames: 12
Frame Time: 0.033333
52.599599 80.287003 390.638079 -2.552052 0.099841 47.484754 -0.023379 0.350860 -47.584000 -0.065651 0.098655 -0.137534 11.496932 7.986040 0.849827 0.000000 0.000000 0.000000 2.893724 -0.406063 0.256301 1.465595 -0.105366 -0.306728 -5.026828 -1.721739 1.576808 18.279766 14.899782 -11.271409 0.000000 0.000000 0.000000 0.000000 0.000000 0.000000 1.381670 5.748347 2.134679 -5.155023 -13.691220 -0.627069 6.718085 3.451641 -1.519589 -2.274989 -4.083441 0.204826 0.000000 0.000000 0.000000 0.000000 0.000000 0.000000 1.241792 -3.998170 -47.422993 -3.382124 2.615728 -0.170223 14.952081 -29.088769 4.674747 0.000000 0.000000 0.000000 3.462629 -0.259300 -46.736707 -2.801922 -1.544371 -0.911527 -16.296542 17.142152 12.561104 0.000000 0.000000 0.000000
52.634089 80.293595 390.688641 -2.535223 0.036470 47.599314 -0.022645 0.379276 -47.699935 -0.083045 0.089789 -0.139891 11.499932 8.046616 0.847592 0.000000 0.000000 0.000000 2.915017 -0.352786 0.257654 1.738878 1.102347 -0.464047 -4.534749 -5.057117 1.130636 17.326205 15.793145 -10.961385 0.000000 0.000000 0.000000 0.000000 0.000000 0.000000 1.385430 5.804937 2.140863 -5.140431 -13.697449 -0.628949 5.840475 3.383875 -1.262341 -1.220565 -3.112346 -0.131726 0.000000 0.000000 0.000000 0.000000 0.000000 0.000000 1.278615 -3.914596 -47.539048 -3.462053 2.593002 -0.181608 12.759947 -24.729118 5.933587 0.000000 0.000000 0.000000 3.602437 -0.171024 -46.828000 -2.906894 -1.593845 -0.941457 -22.784042 22.904274 17.438546 0.000000 0.000000 0.000000
52.675273 80.298162 390.740130 -2.498737 -0.024680 47.649351 -0.019221 0.407753 -47.750403 -0.100979 0.084231 -0.141088 11.470812 8.028020 0.834912 0.000000 0.000000 0.000000 2.915228 -0.307532 0.257184 2.019898 1.944900 -0.597756 -4.540067 -7.694302 0.923810 17.926426 16.947957 -11.554856 0.000000 0.000000 0.000000 0.000000 0.000000 0.000000 1.421810 5.863689 2.140245 -5.210677 -13.744026 -0.628745 5.236077 2.542164 -0.848271 -1.792548 -2.204744 -0.157540 0.000000 0.000000 0.000000 0.000000 0.000000 0.000000 1.279777 -3.835309 -47.592861 -3.565035 2.640870 -0.188238 12.977069 -24.908846 6.356266 0.000000 0.000000 0.000000 3.754578 -0.050924 -46.848191 -3.009074 -1.646187 -0.974715 -24.688589 23.468187 18.921100 0.000000 0.000000 0.000000
52.710926 80.306837 390.785600 -2.469561 -0.084985 47.675306 -0.010424 0.426760 -47.776675 -0.112545 0.082127 -0.141419 11.470405 8.020054 0.817426 0.000000 0.000000 0.000000 2.905677 -0.264356 0.255863 2.244165 2.239333 -0.674885 -4.775137 -8.542196 0.921752 18.311145 17.019688 -11.786614 0.000000 0.000000 0.000000 0.000000 0.000000 0.000000 1.437543 5.898363 2.133997 -5.259769 -13.737257 -0.619934 4.549939 1.868928 -0.478723 -2.272683 -1.787296 -0.103308 0.000000 0.000000 0.000000 0.000000 0.000000 0.000000 1.300665 -3.802481 -47.619505 -3.704753 2.716408 -0.193850 14.159739 -26.879192 6.326032 0.000000 0.000000 0.000000 3.902411 0.045223 -46.850225 -3.150095 -1.670724 -1.004092 -27.788225 24.011134 21.359168 0.000000 0.000000 0.000000
52.727221 80.313444 390.827350 -2.464619 -0.136515 47.655357 0.002426 0.441928 -47.757466 -0.119431 0.082840 -0.142052 11.511796 8.008128 0.799681 0.000000 0.000000 0.000000 2.909945 -0.233321 0.255910 2.347564 2.164024 -0.692598 -5.064372 -9.172760 0.931648 18.619897 17.027227 -11.918461 0.000000 0.000000 0.000000 0.000000 0.000000 0.000000 1.455466 5.941792 2.136372 -5.331243 -13.813166 -0.618063 4.289945 1.111926 -0.187569 -2.696809 -1.412824 -0.113004 0.000000 0.000000 0.000000 0.000000 0.000000 0.000000 1.338937 -3.819631 -47.598256 -3.838129 2.820318 -0.194130 16.026148 -30.159067 5.897726 0.000000 0.000000 0.000000 4.024122 0.062984 -46.824096 -3.312425 -1.600237 -1.006072 -26.625864 22.174463 20.455271 0.000000 0.000000 0.000000
52.752550 80.323653 390.847763 -2.450850 -0.162241 47.674059 0.007247 0.450558 -47.776203 -0.123550 0.090223 -0.141705 11.562047 8.010444 0.787157 0.000000 0.000000 0.000000 2.903473 -0.224303 0.255237 2.311159 1.279257 -0.607861 -5.687599 -7.520862 1.221478 19.351800 17.145310 -12.292327 0.000000 0.000000 0.000000 0.000000 0.000000 0.000000 1.447241 5.979234 2.144233 -5.383774 -13.960673 -0.627731 3.644694 0.867855 0.064697 -2.718128 -2.917876 -0.023549 0.000000 0.000000 0.000000 0.000000 0.000000 0.000000 1.319223 -3.874742 -47.617833 -3.965690 3.014369 -0.183352 15.081144 -28.300179 6.851194 0.000000 0.000000 0.000000 4.092813 0.040970 -46.846265 -3.481218 -1.505096 -0.998658 -22.873806 16.802962 17.612631 0.000000 0.000000 0.000000
52.768688 80.332642 390.857804 -2.441284 -0.153542 47.627167 0.007158 0.443323 -47.728657 -0.116472 0.104405 -0.139777 11.590323 7.926871 0.769089 0.000000 0.000000 0.000000 2.881337 -0.242704 0.253460 2.282420 -0.026218 -0.488749 -7.441282 -4.450380 2.081212 21.055182 16.425499 -12.851982 0.000000 0.000000 0.000000 0.000000 0.000000 0.000000 1.409442 6.011675 2.158670 -5.420237 -14.168227 -0.650242 3.198886 0.635872 0.274745 -2.279243 -4.017353 -0.136780 0.000000 0.000000 0.000000 0.000000 0.000000 0.000000 1.264741 -3.976248 -47.572190 -4.076054 3.230635 -0.168541 17.555765 -32.660335 6.384703 0.000000 0.000000 0.000000 3.990660 -0.002653 -46.824786 -3.494898 -1.272307 -0.947723 -15.766076 10.455043 12.481636 0.000000 0.000000 0.000000
52.766618 80.338332 390.867302 -2.453000 -0.141129 47.578300 0.006265 0.429935 -47.679813 -0.105043 0.113571 -0.138501 11.625892 7.890912 0.758931 0.000000 0.000000 0.000000 2.872116 -0.254937 0.252765 2.268384 -1.734985 -0.337686 -10.002609 -1.130422 3.416947 23.013065 13.990816 -12.998275 0.000000 0.000000 0.000000 0.000000 0.000000 0.000000 1.392005 6.049811 2.173133 -5.446662 -14.361942 -0.674659 2.815506 0.328635 0.488932 -2.063482 -3.576079 -0.282129 0.000000 0.000000 0.000000 0.000000 0.000000 0.000000 1.238585 -4.088816 -47.522747 -4.153772 3.436640 -0.149924 16.216797 -30.424984 6.156100 0.000000 0.000000 0.000000 3.854382 -0.081134 -46.811390 -3.460475 -0.990780 -0.878084 -9.329908 2.646007 8.270790 0.000000 0.000000 0.000000
52.742608 80.340926 390.883755 -2.482031 -0.126418 47.570291 0.003884 0.405680 -47.672401 -0.089251 0.120245 -0.137481 11.638884 7.886882 0.756411 0.000000 0.000000 0.000000 2.869016 -0.258246 0.252523 2.246348 -3.677086 -0.164116 -12.956617 3.917636 5.410338 25.040150 10.877301 -12.928361 0.000000 0.000000 0.000000 0.000000 0.000000 0.000000 1.386399 6.085098 2.184112 -5.457257 -14.513110 -0.695793 3.063869 0.575425 0.391470 -2.664662 -3.836354 -0.071410 0.000000 0.000000 0.000000 0.000000 0.000000 0.000000 1.255866 -4.207178 -47.510355 -4.228617 3.591160 -0.135169 16.110811 -30.334797 6.031480 0.000000 0.000000 0.000000 3.764292 -0.177201 -46.832354 -3.411025 -0.759891 -0.815074 -8.005608 1.469849 7.376719 0.000000 0.000000 0.000000
52.719601 80.338684 390.913916 -2.504558 -0.124372 47.585740 0.010226 0.393679 -47.688268 -0.077050 0.133713 -0.136344 11.641307 7.848349 0.752910 0.000000 0.000000 0.000000 2.866304 -0.270278 0.252406 2.225065 -5.516265 0.000972 -16.481071 9.973363 8.188031 28.645541 6.888100 -13.209970 0.000000 0.000000 0.000000 0.000000 0.000000 0.000000 1.363029 6.108995 2.196882 -5.438905 -14.612024 -0.715308 3.097659 0.880160 0.317407 -2.265246 -4.133745 -0.140192 0.000000 0.000000 0.000000 0.000000 0.000000 0.000000 1.311236 -4.254741 -47.519779 -4.301223 3.670002 -0.127894 19.229664 -35.785594 5.865850 0.000000 0.000000 0.000000 3.708457 -0.209544 -46.860973 -3.319611 -0.621793 -0.775999 -7.658433 0.949641 7.105505 0.000000 0.000000 0.000000
52.695865 80.325497 390.954626 -2.517090 -0.128867 47.586547 0.029435 0.383995 -47.688749 -0.058529 0.150073 -0.133706 11.568954 7.757537 0.749803 0.000000 0.000000 0.000000 2.840255 -0.289994 0.250277 2.212542 -6.956377 0.130084 -18.275918 15.442441 10.179950 29.422682 2.375354 -12.162761 0.000000 0.000000 0.000000 0.000000 0.000000 0.000000 1.320415 6.120551 2.205532 -5.404257 -14.681841 -0.734498 3.249320 0.893843 0.290994 -2.133277 -3.068603 -0.256862 0.000000 0.000000 0.000000 0.000000 0.000000 0.000000 1.366345 -4.272615 -47.515260 -4.323580 3.698141 -0.122642 14.709830 -27.863244 6.999191 0.000000 0.000000 0.000000 3.654136 -0.233283 -46.876179 -3.253253 -0.486191 -0.739685 -8.493366 2.734642 7.497955 0.000000 0.000000 0.000000
52.677489 80.309763 390.999235 -2.520322 -0.130895 47.580678 0.052017 0.376035 -47.682003 -0.037883 0.168248 -0.130293 11.465432 7.634583 0.745898 0.000000 0.000000 0.000000 2.801770 -0.317779 0.247102 2.205895 -7.743969 0.200908 -19.389854 18.876266 11.486185 30.284345 -1.143481 -11.435891 0.000000 0.000000 0.000000 0.000000 0.000000 0.000000 1.266828 6.114903 2.210115 -5.356134 -14.713062 -0.750371 3.156068 1.247122 0.225296 -1.454919 -3.560026 -0.373636 0.000000 0.000000 0.000000 0.000000 0.000000 0.000000 1.418219 -4.264783 -47.504347 -4.336547 3.691678 -0.120978 14.565840 -27.636313 7.343186 0.000000 0.000000 0.000000 3.645808 -0.209318 -46.866496 -3.178288 -0.484264 -0.736049 -11.202419 7.203473 9.077407 0.000000 0.000000 0.000000
